solid baseModel
   facet normal 0.000000e+00 0.000000e+00 1.000000e+00
      outer loop
         vertex 2.625000e+03 0.000000e+00 3.000000e+03
         vertex 2.613000e+03 7.499993e+00 3.000000e+03
         vertex 2.113000e+03 7.499993e+00 3.000000e+03
      endloop
   endfacet
   facet normal -0.000000e+00 0.000000e+00 1.000000e+00
      outer loop
         vertex 2.613000e+03 7.499993e+00 3.000000e+03
         vertex 2.625000e+03 0.000000e+00 3.000000e+03
         vertex 2.613000e+03 1.012500e+03 3.000000e+03
      endloop
   endfacet
   facet normal -0.000000e+00 0.000000e+00 1.000000e+00
      outer loop
         vertex 2.613000e+03 1.012500e+03 3.000000e+03
         vertex 2.625000e+03 0.000000e+00 3.000000e+03
         vertex 2.625000e+03 1.020000e+03 3.000000e+03
      endloop
   endfacet
   facet normal 0.000000e+00 -0.000000e+00 1.000000e+00
      outer loop
         vertex 2.613000e+03 1.012500e+03 3.000000e+03
         vertex 2.625000e+03 1.020000e+03 3.000000e+03
         vertex 2.113000e+03 1.012500e+03 3.000000e+03
      endloop
   endfacet
   facet normal 0.000000e+00 -0.000000e+00 1.000000e+00
      outer loop
         vertex 2.113000e+03 1.012500e+03 3.000000e+03
         vertex 2.625000e+03 1.020000e+03 3.000000e+03
         vertex 0.000000e+00 1.020000e+03 3.000000e+03
      endloop
   endfacet
   facet normal 0.000000e+00 0.000000e+00 1.000000e+00
      outer loop
         vertex 2.113000e+03 1.012500e+03 3.000000e+03
         vertex 0.000000e+00 1.020000e+03 3.000000e+03
         vertex 2.113000e+03 7.499993e+00 3.000000e+03
      endloop
   endfacet
   facet normal 0.000000e+00 0.000000e+00 1.000000e+00
      outer loop
         vertex 2.113000e+03 7.499993e+00 3.000000e+03
         vertex 0.000000e+00 1.020000e+03 3.000000e+03
         vertex 0.000000e+00 0.000000e+00 3.000000e+03
      endloop
   endfacet
   facet normal 0.000000e+00 0.000000e+00 1.000000e+00
      outer loop
         vertex 2.113000e+03 7.499993e+00 3.000000e+03
         vertex 0.000000e+00 0.000000e+00 3.000000e+03
         vertex 2.625000e+03 0.000000e+00 3.000000e+03
      endloop
   endfacet
   facet normal 1.000000e+00 -0.000000e+00 0.000000e+00
      outer loop
         vertex 2.120000e+03 0.000000e+00 2.650000e+03
         vertex 2.120000e+03 0.000000e+00 0.000000e+00
         vertex 2.120000e+03 1.020000e+03 2.650000e+03
      endloop
   endfacet
   facet normal 1.000000e+00 0.000000e+00 0.000000e+00
      outer loop
         vertex 2.120000e+03 1.020000e+03 2.650000e+03
         vertex 2.120000e+03 0.000000e+00 0.000000e+00
         vertex 2.120000e+03 1.020000e+03 0.000000e+00
      endloop
   endfacet
   facet normal -0.000000e+00 -0.000000e+00 -1.000000e+00
      outer loop
         vertex 2.120000e+03 1.020000e+03 0.000000e+00
         vertex 2.120000e+03 0.000000e+00 0.000000e+00
         vertex 0.000000e+00 1.020000e+03 0.000000e+00
      endloop
   endfacet
   facet normal 0.000000e+00 0.000000e+00 -1.000000e+00
      outer loop
         vertex 0.000000e+00 1.020000e+03 0.000000e+00
         vertex 2.120000e+03 0.000000e+00 0.000000e+00
         vertex 0.000000e+00 0.000000e+00 0.000000e+00
      endloop
   endfacet
   facet normal 0.000000e+00 1.000000e+00 -0.000000e+00
      outer loop
         vertex 2.120000e+03 1.020000e+03 0.000000e+00
         vertex 0.000000e+00 1.020000e+03 0.000000e+00
         vertex 2.120000e+03 1.020000e+03 2.650000e+03
      endloop
   endfacet
   facet normal 0.000000e+00 1.000000e+00 0.000000e+00
      outer loop
         vertex 2.120000e+03 1.020000e+03 2.650000e+03
         vertex 0.000000e+00 1.020000e+03 0.000000e+00
         vertex 0.000000e+00 1.020000e+03 3.000000e+03
      endloop
   endfacet
   facet normal 0.000000e+00 1.000000e+00 -0.000000e+00
      outer loop
         vertex 2.120000e+03 1.020000e+03 2.650000e+03
         vertex 0.000000e+00 1.020000e+03 3.000000e+03
         vertex 2.625000e+03 1.020000e+03 2.940000e+03
      endloop
   endfacet
   facet normal 0.000000e+00 1.000000e+00 -0.000000e+00
      outer loop
         vertex 2.625000e+03 1.020000e+03 2.940000e+03
         vertex 0.000000e+00 1.020000e+03 3.000000e+03
         vertex 2.625000e+03 1.020000e+03 3.000000e+03
      endloop
   endfacet
   facet normal -0.000000e+00 -1.000000e+00 0.000000e+00
      outer loop
         vertex 2.625000e+03 0.000000e+00 2.940000e+03
         vertex 2.625000e+03 0.000000e+00 3.000000e+03
         vertex 2.120000e+03 0.000000e+00 2.650000e+03
      endloop
   endfacet
   facet normal 0.000000e+00 -1.000000e+00 0.000000e+00
      outer loop
         vertex 2.120000e+03 0.000000e+00 2.650000e+03
         vertex 2.625000e+03 0.000000e+00 3.000000e+03
         vertex 0.000000e+00 0.000000e+00 3.000000e+03
      endloop
   endfacet
   facet normal -0.000000e+00 -1.000000e+00 -0.000000e+00
      outer loop
         vertex 2.120000e+03 0.000000e+00 2.650000e+03
         vertex 0.000000e+00 0.000000e+00 3.000000e+03
         vertex 2.120000e+03 0.000000e+00 0.000000e+00
      endloop
   endfacet
   facet normal 0.000000e+00 -1.000000e+00 0.000000e+00
      outer loop
         vertex 2.120000e+03 0.000000e+00 0.000000e+00
         vertex 0.000000e+00 0.000000e+00 3.000000e+03
         vertex 0.000000e+00 0.000000e+00 0.000000e+00
      endloop
   endfacet
   facet normal -1.000000e+00 0.000000e+00 0.000000e+00
      outer loop
         vertex 0.000000e+00 0.000000e+00 3.000000e+03
         vertex 0.000000e+00 1.020000e+03 3.000000e+03
         vertex 0.000000e+00 0.000000e+00 0.000000e+00
      endloop
   endfacet
   facet normal -1.000000e+00 0.000000e+00 0.000000e+00
      outer loop
         vertex 0.000000e+00 0.000000e+00 0.000000e+00
         vertex 0.000000e+00 1.020000e+03 3.000000e+03
         vertex 0.000000e+00 1.020000e+03 0.000000e+00
      endloop
   endfacet
   facet normal 1.000000e+00 -0.000000e+00 0.000000e+00
      outer loop
         vertex 2.625000e+03 0.000000e+00 3.000000e+03
         vertex 2.625000e+03 0.000000e+00 2.940000e+03
         vertex 2.625000e+03 1.020000e+03 3.000000e+03
      endloop
   endfacet
   facet normal 1.000000e+00 0.000000e+00 0.000000e+00
      outer loop
         vertex 2.625000e+03 1.020000e+03 3.000000e+03
         vertex 2.625000e+03 0.000000e+00 2.940000e+03
         vertex 2.625000e+03 1.020000e+03 2.940000e+03
      endloop
   endfacet
   facet normal 4.979871e-01 0.000000e+00 -8.671844e-01
      outer loop
         vertex 2.625000e+03 0.000000e+00 2.940000e+03
         vertex 2.120000e+03 0.000000e+00 2.650000e+03
         vertex 2.625000e+03 1.020000e+03 2.940000e+03
      endloop
   endfacet
   facet normal 4.979871e-01 0.000000e+00 -8.671844e-01
      outer loop
         vertex 2.625000e+03 1.020000e+03 2.940000e+03
         vertex 2.120000e+03 0.000000e+00 2.650000e+03
         vertex 2.120000e+03 1.020000e+03 2.650000e+03
      endloop
   endfacet
   facet normal 1.000000e+00 0.000000e+00 0.000000e+00
      outer loop
         vertex 2.613000e+03 1.012500e+03 3.044000e+03
         vertex 2.613000e+03 7.499993e+00 3.044000e+03
         vertex 2.613000e+03 1.012500e+03 3.000000e+03
      endloop
   endfacet
   facet normal 1.000000e+00 0.000000e+00 0.000000e+00
      outer loop
         vertex 2.613000e+03 1.012500e+03 3.000000e+03
         vertex 2.613000e+03 7.499993e+00 3.044000e+03
         vertex 2.613000e+03 7.499993e+00 3.000000e+03
      endloop
   endfacet
   facet normal -0.000000e+00 1.000000e+00 0.000000e+00
      outer loop
         vertex 2.113000e+03 1.012500e+03 3.044000e+03
         vertex 2.613000e+03 1.012500e+03 3.044000e+03
         vertex 2.113000e+03 1.012500e+03 3.000000e+03
      endloop
   endfacet
   facet normal 0.000000e+00 1.000000e+00 0.000000e+00
      outer loop
         vertex 2.113000e+03 1.012500e+03 3.000000e+03
         vertex 2.613000e+03 1.012500e+03 3.044000e+03
         vertex 2.613000e+03 1.012500e+03 3.000000e+03
      endloop
   endfacet
   facet normal -1.000000e+00 0.000000e+00 0.000000e+00
      outer loop
         vertex 2.113000e+03 7.499993e+00 3.044000e+03
         vertex 2.113000e+03 1.012500e+03 3.044000e+03
         vertex 2.113000e+03 7.499993e+00 3.000000e+03
      endloop
   endfacet
   facet normal -1.000000e+00 0.000000e+00 0.000000e+00
      outer loop
         vertex 2.113000e+03 7.499993e+00 3.000000e+03
         vertex 2.113000e+03 1.012500e+03 3.044000e+03
         vertex 2.113000e+03 1.012500e+03 3.000000e+03
      endloop
   endfacet
   facet normal -0.000000e+00 -1.000000e+00 -0.000000e+00
      outer loop
         vertex 2.613000e+03 7.499993e+00 3.044000e+03
         vertex 2.113000e+03 7.499993e+00 3.044000e+03
         vertex 2.613000e+03 7.499993e+00 3.000000e+03
      endloop
   endfacet
   facet normal 0.000000e+00 -1.000000e+00 0.000000e+00
      outer loop
         vertex 2.613000e+03 7.499993e+00 3.000000e+03
         vertex 2.113000e+03 7.499993e+00 3.044000e+03
         vertex 2.113000e+03 7.499993e+00 3.000000e+03
      endloop
   endfacet
   facet normal -0.000000e+00 0.000000e+00 1.000000e+00
      outer loop
         vertex 2.113000e+03 1.012500e+03 3.044000e+03
         vertex 2.113000e+03 7.499993e+00 3.044000e+03
         vertex 2.613000e+03 1.012500e+03 3.044000e+03
      endloop
   endfacet
   facet normal 0.000000e+00 0.000000e+00 1.000000e+00
      outer loop
         vertex 2.613000e+03 1.012500e+03 3.044000e+03
         vertex 2.113000e+03 7.499993e+00 3.044000e+03
         vertex 2.613000e+03 7.499993e+00 3.044000e+03
      endloop
   endfacet
endsolid