{"accessors" : [{"bufferView" : 0, "byteOffset" : 0, "componentType" : 5123, "count" : 108, "type" : "SCALAR", "max" : [107], "min" : [0]}, {"bufferView" : 1, "byteOffset" : 0, "componentType" : 5126, "count" : 108, "type" : "VEC3", "max" : [2625, 1020, 3044], "min" : [0, 0, 0], "name" : "POSITION"}, {"bufferView" : 1, "byteOffset" : 12, "componentType" : 5126, "count" : 108, "type" : "VEC3", "max" : [1.0000044107437134, 1.0000044107437134, 1.0000044107437134], "min" : [-1.0000044107437134, -1.0000044107437134, -1.0000044107437134], "name" : "NORMAL"}], "asset" : {"generator" : "Aspose.3D 22.10", "version" : "2.0"}, "buffers" : [{"uri" : "data:application/octet-stream;base64,", "byteLength" : 2816}], "bufferViews" : [{"buffer" : 0, "byteOffset" : 0, "byteLength" : 216, "target" : 34963}, {"buffer" : 0, "byteOffset" : 220, "byteLength" : 2592, "byteStride" : 24, "target" : 34962}], "meshes" : [{"primitives" : [{"attributes" : {"POSITION" : 1, "NORMAL" : 2}, "indices" : 0, "mode" : 4}], "name" : "baseModel"}], "nodes" : [{"mesh" : 0, "name" : "baseModel"}], "scene" : 0, "scenes" : [{"nodes" : [0]}]}