solid ROOF
   facet normal -5.508866e-02 9.984815e-01 0.000000e+00
      outer loop
         vertex 0.000000e+00 2.625000e+03 1.020000e+03
         vertex 2.900000e+03 2.785000e+03 1.020000e+03
         vertex 0.000000e+00 2.625000e+03 0.000000e+00
      endloop
   endfacet
   facet normal -5.508866e-02 9.984815e-01 0.000000e+00
      outer loop
         vertex 0.000000e+00 2.625000e+03 0.000000e+00
         vertex 2.900000e+03 2.785000e+03 1.020000e+03
         vertex 2.900000e+03 2.785000e+03 0.000000e+00
      endloop
   endfacet
   facet normal -8.597379e-01 -5.107354e-01 -0.000000e+00
      outer loop
         vertex 3.000001e+02 2.120000e+03 1.020000e+03
         vertex 0.000000e+00 2.625000e+03 1.020000e+03
         vertex 3.000001e+02 2.120000e+03 0.000000e+00
      endloop
   endfacet
   facet normal -8.597379e-01 -5.107354e-01 0.000000e+00
      outer loop
         vertex 3.000001e+02 2.120000e+03 0.000000e+00
         vertex 0.000000e+00 2.625000e+03 1.020000e+03
         vertex 0.000000e+00 2.625000e+03 0.000000e+00
      endloop
   endfacet
   facet normal -0.000000e+00 -1.000000e+00 -0.000000e+00
      outer loop
         vertex 2.504951e+03 2.120000e+03 1.020000e+03
         vertex 3.000001e+02 2.120000e+03 1.020000e+03
         vertex 2.504951e+03 2.120000e+03 0.000000e+00
      endloop
   endfacet
   facet normal 0.000000e+00 -1.000000e+00 0.000000e+00
      outer loop
         vertex 2.504951e+03 2.120000e+03 0.000000e+00
         vertex 3.000001e+02 2.120000e+03 1.020000e+03
         vertex 3.000001e+02 2.120000e+03 0.000000e+00
      endloop
   endfacet
   facet normal 8.597380e-01 -5.107354e-01 0.000000e+00
      outer loop
         vertex 2.900000e+03 2.785000e+03 1.020000e+03
         vertex 2.504951e+03 2.120000e+03 1.020000e+03
         vertex 2.900000e+03 2.785000e+03 0.000000e+00
      endloop
   endfacet
   facet normal 8.597380e-01 -5.107354e-01 0.000000e+00
      outer loop
         vertex 2.900000e+03 2.785000e+03 0.000000e+00
         vertex 2.504951e+03 2.120000e+03 1.020000e+03
         vertex 2.504951e+03 2.120000e+03 0.000000e+00
      endloop
   endfacet
   facet normal 0.000000e+00 -0.000000e+00 1.000000e+00
      outer loop
         vertex 3.000001e+02 2.120000e+03 1.020000e+03
         vertex 2.504951e+03 2.120000e+03 1.020000e+03
         vertex 0.000000e+00 2.625000e+03 1.020000e+03
      endloop
   endfacet
   facet normal -0.000000e+00 0.000000e+00 1.000000e+00
      outer loop
         vertex 0.000000e+00 2.625000e+03 1.020000e+03
         vertex 2.504951e+03 2.120000e+03 1.020000e+03
         vertex 2.900000e+03 2.785000e+03 1.020000e+03
      endloop
   endfacet
   facet normal 0.000000e+00 0.000000e+00 -1.000000e+00
      outer loop
         vertex 2.504951e+03 2.120000e+03 0.000000e+00
         vertex 3.000001e+02 2.120000e+03 0.000000e+00
         vertex 2.900000e+03 2.785000e+03 0.000000e+00
      endloop
   endfacet
   facet normal 0.000000e+00 0.000000e+00 -1.000000e+00
      outer loop
         vertex 2.900000e+03 2.785000e+03 0.000000e+00
         vertex 3.000001e+02 2.120000e+03 0.000000e+00
         vertex 0.000000e+00 2.625000e+03 0.000000e+00
      endloop
   endfacet
endsolid